<?xml version="1.0" ?><!-- Uploaded to: SVG Repo, www.svgrepo.com, Generator: SVG Repo Mixer Tools -->
<svg width="800px" height="800px" viewBox="0 0 48 48" data-name="Layer 1" id="Layer_1" xmlns="http://www.w3.org/2000/svg"><defs><style>.cls-1{fill:none;stroke:#000000;stroke-linecap:round;stroke-miterlimit:10;stroke-width:2px;}</style></defs><title/><rect class="cls-1" height="8" rx="2" ry="2" width="16" x="1" y="1"/><line class="cls-1" x1="4" x2="9" y1="5" y2="5"/><line class="cls-1" x1="12" x2="14" y1="5" y2="5"/><rect class="cls-1" height="8" rx="2" ry="2" width="16" x="1" y="12"/><line class="cls-1" x1="4" x2="9" y1="16" y2="16"/><line class="cls-1" x1="12" x2="14" y1="16" y2="16"/><rect class="cls-1" height="8" rx="2" ry="2" width="16" x="31" y="39"/><line class="cls-1" x1="34" x2="39" y1="43" y2="43"/><line class="cls-1" x1="42" x2="44" y1="43" y2="43"/><rect class="cls-1" height="8" rx="2" ry="2" width="16" x="31" y="28"/><line class="cls-1" x1="34" x2="39" y1="32" y2="32"/><line class="cls-1" x1="42" x2="44" y1="32" y2="32"/><path class="cls-1" d="M36,12a3,3,0,1,1,2.1-5.14A3,3,0,0,1,39,9"/><path class="cls-1" d="M36,12a3,3,0,1,1-3,3"/><line class="cls-1" x1="36" x2="36" y1="5" y2="6"/><line class="cls-1" x1="36" x2="36" y1="19" y2="18"/><circle class="cls-1" cx="36" cy="12" r="10"/><line class="cls-1" x1="9" x2="9" y1="25" y2="38"/><line class="cls-1" x1="23" x2="9" y1="38" y2="38"/><line class="cls-1" x1="9" x2="7" y1="24" y2="26"/><line class="cls-1" x1="23" x2="22" y1="38" y2="36"/><line class="cls-1" x1="9" x2="11" y1="24" y2="26"/><line class="cls-1" x1="23" x2="22" y1="38" y2="40"/></svg>